<svg xmlns="http://www.w3.org/2000/svg" viewBox="0 0 512 512">
  <defs>
    <linearGradient id="bg" x1="0%" y1="0%" x2="100%" y2="100%">
      <stop offset="0%" stop-color="#0891b2"/>
      <stop offset="100%" stop-color="#06b6d4"/>
    </linearGradient>
  </defs>
  <rect width="512" height="512" rx="96" fill="url(#bg)"/>
  <rect x="80" y="200" width="352" height="240" rx="24" fill="white" opacity="0.95"/>
  <path d="M186 200 L186 160 Q186 136 210 136 L302 136 Q326 136 326 160 L326 200" fill="none" stroke="white" stroke-width="28" stroke-linecap="round" opacity="0.9"/>
  <rect x="80" y="296" width="352" height="32" fill="#0e7490" opacity="0.35"/>
  <rect x="228" y="278" width="56" height="68" rx="10" fill="#0e7490" opacity="0.5"/>
  <circle cx="256" cy="312" r="12" fill="white" opacity="0.9"/>
  <rect x="310" y="228" width="18" height="40" rx="3" fill="#a5f3fc" opacity="0.7"/>
  <rect x="334" y="220" width="18" height="48" rx="3" fill="#a5f3fc" opacity="0.7"/>
  <rect x="358" y="232" width="18" height="36" rx="3" fill="#a5f3fc" opacity="0.7"/>
  <circle cx="150" cy="248" r="22" fill="#a5f3fc" opacity="0.8"/>
  <path d="M114 310 Q114 276 150 276 Q186 276 186 310" fill="#a5f3fc" opacity="0.8"/>
</svg>
